<svg id="Layer_1" data-name="Layer 1" xmlns="http://www.w3.org/2000/svg" viewBox="0 0 24 24"><defs><style>.cls-1{font-size:1.3px;fill:#f1f2f2;font-family:MyriadPro-Regular, Myriad Pro;}.cls-2{letter-spacing:0.01em;}.cls-3{letter-spacing:-0.01em;}.cls-4{letter-spacing:0em;}.cls-5{letter-spacing:-0.01em;}.cls-6{fill:#f7941d;}.cls-7{fill:#fefefe;}.cls-8{fill:#efddd6;}.cls-9{fill:#9393a9;}.cls-10{fill:#f8f7f9;}.cls-11{fill:#b75743;}.cls-12{fill:#ca8570;}.cls-13{fill:#b0b0c0;}.cls-14{fill:#cb8672;}.cls-15{fill:#b1b1c0;}.cls-16{fill:#a0a0b3;}.cls-17{fill:#7b7c95;}.cls-18{fill:#cb8772;}.cls-19{fill:#fbfbfb;}.cls-20{font-size:3.11px;fill:#231f20;font-family:BirchStd, Birch Std;}.cls-21{letter-spacing:-0.01em;}.cls-22{letter-spacing:0em;}</style></defs><title>Artboard 1</title><text class="cls-1" transform="translate(14.2 23.87) scale(0.95 1)"><tspan class="cls-2">S</tspan><tspan class="cls-3" x="0.65" y="0">c</tspan><tspan class="cls-4" x="1.23" y="0">o</tspan><tspan class="cls-5" x="1.94" y="0">r</tspan><tspan x="2.35" y="0">es</tspan></text><g id="WYMDJB.tif"><path class="cls-6" d="M0,16.57V9.25C0,9.16,0,9.07,0,9Q0,7.3,0,5.63T0,2.41v-1c0-.3,0-.61,0-.91A.44.44,0,0,1,.12.26.62.62,0,0,1,.56,0h3.1a.1.1,0,0,0,0,.12,1.3,1.3,0,0,1,.4.41.62.62,0,0,1,.1.22,5.11,5.11,0,0,1,0,.6.29.29,0,0,1-.08.19.61.61,0,0,1-.62.18A.57.57,0,0,0,3,1.84S3,1.92,3,2l.08,0a2,2,0,0,1,.73.14,5.44,5.44,0,0,0,.54.16.82.82,0,0,1,.35.14L5,2.75l1,.9.75.64L7.67,5l1,.89A5.7,5.7,0,0,1,9.59,7a3.84,3.84,0,0,1,.38.76l.15.39a2.32,2.32,0,0,1,.12.37.37.37,0,0,1,0,.22A.5.5,0,0,1,9.75,9l-1.14.1a.49.49,0,0,1-.35,0l-.17-.1a.52.52,0,0,0-.53,0c-.14.06-.13.06-.25,0l-.7-.56-.83-.66L5,7,4.2,6.3A1.23,1.23,0,0,0,3.75,6a.67.67,0,0,0-.55.11,4,4,0,0,0-.47.37,2.12,2.12,0,0,0-.17.19h.11l.58.06a2.64,2.64,0,0,1,.83.3,5.08,5.08,0,0,1,1,.61l.78.66,1,.92c.09.08.1.06,0,.17a.18.18,0,0,0,0,.25,1.92,1.92,0,0,0,.45.42c.1.06.21.1.3.17a.62.62,0,0,0,.6.13.23.23,0,0,1,.17,0l1.11.84.24.19-.08,0-2.45.76a3.39,3.39,0,0,0-1,.45.83.83,0,0,0-.42.66,1.48,1.48,0,0,0,0,.46A1.91,1.91,0,0,0,6,14.2a3.71,3.71,0,0,0,.53.72l.79.82.54.54.58.58a.47.47,0,0,1,.17.37.87.87,0,0,0,0,.29.75.75,0,0,1-.13.64l-.3.44L8,19a.7.7,0,0,0-.13.43A.26.26,0,0,0,8,19.6a.74.74,0,0,0,.55.05A.89.89,0,0,0,9,19.38c.18-.19.38-.36.55-.56a1.6,1.6,0,0,1,.51-.41,1.52,1.52,0,0,0,.79-.64.82.82,0,0,0,.07-.2c0-.08,0-.14-.09-.2a1.23,1.23,0,0,0-.75-.56.27.27,0,0,1-.19-.17l-.23-.44-.35-.63c-.09-.16-.16-.33-.24-.49l-.37-.7s0-.07,0-.09L9.63,14a5.78,5.78,0,0,1,1.48-.26c.15,0,.15,0,.19.14s0,0,0,.07l.14.57.19.77.14.57.12.48.14.58.13.49a.58.58,0,0,0,.19.28l.63.57.63.56.48.43.71.64c.22.19.45.35.66.55a1.16,1.16,0,0,1,.27.37,1.45,1.45,0,0,1,.09.45.94.94,0,0,1,0,.36,6.54,6.54,0,0,1-.25.63,2.79,2.79,0,0,1-.18.35c-.11.19-.13.29,0,.45a.37.37,0,0,0,.35.2,1.62,1.62,0,0,1,.32,0l-.11,0L14,23.6l-2,.33-.46.08h-.31l-1.37-.28-3.19-.66L4,22.51a7,7,0,0,1-1.86-.63,2.36,2.36,0,0,1-.87-.76c-.15-.22-.29-.45-.44-.67a4.25,4.25,0,0,1-.41-.84,5.08,5.08,0,0,1-.21-.7,5.79,5.79,0,0,1-.12-.65c0-.27-.05-.55-.08-.83,0-.06,0-.11,0-.17s0-.4,0-.6A.61.61,0,0,0,0,16.57ZM2.25.26a.67.67,0,0,0-.53.19.33.33,0,0,0,0,.45.69.69,0,0,0,.93,0,.33.33,0,0,0,0-.51A.61.61,0,0,0,2.25.26Z"/><path class="cls-7" d="M11.55,24l.46-.08,2-.33L16,23.28l.11,0a1.62,1.62,0,0,0-.32,0,.37.37,0,0,1-.35-.2c-.11-.16-.1-.26,0-.45a2.79,2.79,0,0,0,.18-.35,6.54,6.54,0,0,0,.25-.63.94.94,0,0,0,0-.36,1.45,1.45,0,0,0-.09-.45,1.16,1.16,0,0,0-.27-.37c-.21-.19-.44-.36-.66-.55l-.71-.64-.48-.43L13,18.24l-.63-.57a.58.58,0,0,1-.19-.28l-.13-.49-.14-.58-.12-.48-.14-.57-.19-.77-.14-.57s0,0,0-.07,0-.15-.19-.14A5.78,5.78,0,0,0,9.63,14l-.88.32s-.07,0,0,.09l.37.7c.08.16.15.33.24.49l.35.63.23.44a.27.27,0,0,0,.19.17,1.23,1.23,0,0,1,.75.56c0,.06.11.12.09.2a.82.82,0,0,1-.07.2,1.52,1.52,0,0,1-.79.64,1.6,1.6,0,0,0-.51.41c-.17.2-.37.37-.55.56a.89.89,0,0,1-.42.27A.74.74,0,0,1,8,19.6a.26.26,0,0,1-.15-.21A.7.7,0,0,1,8,19l.23-.37.3-.44a.75.75,0,0,0,.13-.64.87.87,0,0,1,0-.29.47.47,0,0,0-.17-.37l-.58-.58-.54-.54-.79-.82A3.71,3.71,0,0,1,6,14.2a1.91,1.91,0,0,1-.22-.38,1.48,1.48,0,0,1,0-.46.83.83,0,0,1,.42-.66,3.39,3.39,0,0,1,1-.45l2.45-.76.08,0-.24-.19-1.11-.84a.23.23,0,0,0-.17,0,.62.62,0,0,1-.6-.13c-.09-.07-.2-.1-.3-.17a1.92,1.92,0,0,1-.45-.42.18.18,0,0,1,0-.25c.11-.11.1-.09,0-.17l-1-.92-.78-.66a5.08,5.08,0,0,0-1-.61,2.64,2.64,0,0,0-.83-.3L2.68,6.7H2.56a2.12,2.12,0,0,1,.17-.19,4,4,0,0,1,.47-.37A.67.67,0,0,1,3.75,6a1.23,1.23,0,0,1,.45.28L5,7l.83.67.83.66.7.56c.12.1.11.09.25,0a.52.52,0,0,1,.53,0l.17.1a.49.49,0,0,0,.35,0L9.75,9a.5.5,0,0,0,.44-.22.37.37,0,0,0,0-.22,2.32,2.32,0,0,0-.12-.37L10,7.75A3.84,3.84,0,0,0,9.59,7a5.7,5.7,0,0,0-.93-1.07L7.67,5l-.84-.74-.75-.64-1-.9-.35-.31a.82.82,0,0,0-.35-.14,5.44,5.44,0,0,1-.54-.16A2,2,0,0,0,3.08,2L3,2s0-.1,0-.12a.57.57,0,0,1,.52-.08.61.61,0,0,0,.62-.18.29.29,0,0,0,.08-.19,5.11,5.11,0,0,0,0-.6.62.62,0,0,0-.1-.22A1.3,1.3,0,0,0,3.7.15a.1.1,0,0,1,0-.12V0h.21l.08,0a1.51,1.51,0,0,1,.44.4c.16.16.3.32.44.49a5,5,0,0,1,.36.47,1.51,1.51,0,0,0,.43.48l.8.5,1.7,1,1.37.8.9.53.57.33a.15.15,0,0,0,.21,0,.75.75,0,0,1,.08-.12s0-.05,0-.09-.13-.13-.21-.22l.22-.13c.18-.1.43-.08.56-.29A1,1,0,0,1,12,4a1.27,1.27,0,0,1,.71-.3A2.28,2.28,0,0,1,14.09,4a1,1,0,0,1,.46.52c0,.09,0,.18.08.27a.56.56,0,0,1-.12.57,2,2,0,0,1-.41.33c-.13.09-.26.16-.41.24l.08,0,.7.12a5.19,5.19,0,0,1,1.85.87l.71.5,1,.7,1.18.79,1.21.78a5.51,5.51,0,0,0,1.38.63,7,7,0,0,0,1.23.21l.32,0a.6.6,0,0,0,0,.09l-.21.67c0,.11-.06.23-.09.34a1,1,0,0,1-.08.21,2.1,2.1,0,0,1-.35.48c-.2.19-.38.4-.58.58s-.5.4-.75.6a5.06,5.06,0,0,1-1.48.79,11.54,11.54,0,0,1-2.1.43l-1,.14a.47.47,0,0,1-.46-.12c-.24-.24-.51-.45-.76-.68l-.71-.63-.3-.25c0,.15.07.29.1.43s.05.34.07.52,0,.31,0,.47a.23.23,0,0,0,.06.14l.88.72.75.61c.23.19.47.37.68.57a.3.3,0,0,0,.42,0h0c.13-.06.26-.11.36.05h0l.6.53a.11.11,0,0,1,0,.11c-.16.16-.32.32-.49.47a3.56,3.56,0,0,1-.29.21c.07.06.13.15.23.08a3.35,3.35,0,0,0,.36-.27c.15-.14.29-.28.44-.43l.25.18s0,0,0,.05a.51.51,0,0,1-.07.11,4,4,0,0,1-.6.57s-.08.05-.06.11a.14.14,0,0,0,.17,0l.21-.16a1.8,1.8,0,0,0,.48-.5c0-.06.07-.07.12,0l1.21.53,1.81.76a.31.31,0,0,1,.12.08,1.1,1.1,0,0,1,.19.46c0,.19.06.38.09.57a.41.41,0,0,0,0,.06c.05.16,0,.36-.22.37s-.48,0-.71,0a6.75,6.75,0,0,1-1.19,0,.68.68,0,0,1-.42-.16l-.78-.79-.82-.84a1.82,1.82,0,0,0-.29-.27l-1.65-1c-.06,0-.08-.08,0-.14l.13-.23a.1.1,0,0,0,0-.15l-.16-.12-.79-.61-.95-.73-.19-.13c0,.57,0,1.1,0,1.64a.21.21,0,0,0,.06.13c.05.06.13.09.18.15a9,9,0,0,1,.77.86c.2.27.42.52.63.78s.41.51.63.75.4.42.6.63a1.06,1.06,0,0,1,.28.59,1.23,1.23,0,0,1,0,.58.94.94,0,0,1-.19.37.18.18,0,0,0,0,.1,4.31,4.31,0,0,0,0,.45.49.49,0,0,1-.33.47l-.45.18h.1c.67-.13,1.34-.26,2-.41a18.71,18.71,0,0,0,2.9-.82,2.62,2.62,0,0,0,1.14-.75,5.61,5.61,0,0,0,.55-.76,4.89,4.89,0,0,0,.33-.71,5.4,5.4,0,0,0,.21-.75,3.42,3.42,0,0,0,.07-.6c0-.84,0-1.68.05-2.52,0-.18,0-.36,0-.54a.19.19,0,0,1,0-.05V24ZM8.93,10.07v0l.15.12,1.22,1a.17.17,0,0,0,.12,0l.29-.08c.06,0,.07,0,.06-.09l-.06-.25c-.05-.22-.1-.44-.15-.66a.09.09,0,0,0-.1-.09l-.45,0-.94,0A.49.49,0,0,0,8.93,10.07Z"/><path class="cls-6" d="M24,15.24a.19.19,0,0,0,0,.05c0,.18,0,.36,0,.54,0,.84,0,1.68-.05,2.52a3.42,3.42,0,0,1-.07.6,5.4,5.4,0,0,1-.21.75,4.89,4.89,0,0,1-.33.71,5.61,5.61,0,0,1-.55.76,2.62,2.62,0,0,1-1.14.75,18.71,18.71,0,0,1-2.9.82c-.67.15-1.34.27-2,.41h-.1l.45-.18a.49.49,0,0,0,.33-.47,4.31,4.31,0,0,1,0-.45.18.18,0,0,1,0-.1.94.94,0,0,0,.19-.37,1.23,1.23,0,0,0,0-.58,1.06,1.06,0,0,0-.28-.59c-.2-.21-.41-.41-.6-.63s-.42-.5-.63-.75-.43-.51-.63-.78a9,9,0,0,0-.77-.86c-.05-.06-.13-.09-.18-.15a.21.21,0,0,1-.06-.13c0-.54,0-1.08,0-1.64l.19.13.95.73.79.61.16.12a.1.1,0,0,1,0,.15l-.13.23c0,.06,0,.11,0,.14l1.65,1a1.82,1.82,0,0,1,.29.27l.82.84.78.79a.68.68,0,0,0,.42.16,6.75,6.75,0,0,0,1.19,0c.24,0,.48,0,.71,0s.27-.21.22-.37a.41.41,0,0,1,0-.06c0-.19,0-.38-.09-.57a1.1,1.1,0,0,0-.19-.46.31.31,0,0,0-.12-.08l-1.81-.76-1.21-.53c-.05,0-.09,0-.12,0a1.8,1.8,0,0,1-.48.5l-.21.16a.14.14,0,0,1-.17,0c0-.06,0-.08.06-.11a4,4,0,0,0,.6-.57.51.51,0,0,0,.07-.11s0,0,0-.05l-.25-.18c-.15.15-.29.29-.44.43a3.35,3.35,0,0,1-.36.27c-.1.07-.16,0-.23-.08a3.56,3.56,0,0,0,.29-.21c.17-.15.33-.31.49-.47a.11.11,0,0,0,0-.11l-.6-.53h0c-.1-.17-.23-.11-.36-.05h0a.3.3,0,0,1-.42,0c-.22-.2-.45-.38-.68-.57l-.75-.61-.88-.72a.23.23,0,0,1-.06-.14c0-.16,0-.31,0-.47s0-.34-.07-.52-.06-.28-.1-.43l.3.25.71.63c.25.23.52.44.76.68a.47.47,0,0,0,.46.12l1-.14a11.54,11.54,0,0,0,2.1-.43,5.06,5.06,0,0,0,1.48-.79c.25-.2.51-.39.75-.6s.38-.39.58-.58a2.1,2.1,0,0,0,.35-.48,1,1,0,0,0,.08-.21c0-.11.06-.23.09-.34l.21-.67a.6.6,0,0,1,0-.09l-.32,0a7,7,0,0,1-1.23-.21,5.51,5.51,0,0,1-1.38-.63L19.22,8.9,18,8.12l-1-.7-.71-.5a5.19,5.19,0,0,0-1.85-.87l-.7-.12-.08,0c.15-.09.29-.16.41-.24a2,2,0,0,0,.41-.33.56.56,0,0,0,.12-.57c0-.09,0-.18-.08-.27A1,1,0,0,0,14.09,4a2.28,2.28,0,0,0-1.36-.29A1.27,1.27,0,0,0,12,4a1,1,0,0,0-.23.19c-.13.21-.38.19-.56.29L11,4.61c.08.09.14.16.21.22s.05,0,0,.09a.75.75,0,0,0-.08.12.15.15,0,0,1-.21,0l-.57-.33-.9-.53L8.11,3.4l-1.7-1-.8-.5a1.51,1.51,0,0,1-.43-.48A5,5,0,0,0,4.83.94C4.68.78,4.54.61,4.38.45a1.51,1.51,0,0,0-.44-.4L3.87,0H14l.11,0H23.5A.45.45,0,0,1,24,.35a2.12,2.12,0,0,1,0,.38c0,.54,0,1.08,0,1.63v0q0,1.17,0,2.33s0,0,0,0v9.73a.25.25,0,0,0,0,.06q0,.21,0,.42A.42.42,0,0,0,24,15Z"/><path class="cls-7" d="M0,17.27c0,.06,0,.11,0,.17,0,.28,0,.55.08.83a5.79,5.79,0,0,0,.12.65,5.08,5.08,0,0,0,.21.7,4.25,4.25,0,0,0,.41.84c.15.22.29.45.44.67a2.36,2.36,0,0,0,.87.76A7,7,0,0,0,4,22.51l2.65.55,3.19.66,1.37.28H0V17.27Z"/><path class="cls-8" d="M24,2.36c0-.54,0-1.08,0-1.63a2.12,2.12,0,0,0,0-.38A.45.45,0,0,0,23.5,0H24V2.36h0Z"/><path class="cls-9" d="M0,2.41Q0,4,0,5.63T0,9c0,.09,0,.19,0,.28V2.41Z"/><path class="cls-10" d="M.56,0A.62.62,0,0,0,.12.26.44.44,0,0,0,0,.51c0,.3,0,.6,0,.91H0V0H.56Z"/><path class="cls-11" d="M19.33,0H14.14L14,0h5.3Z"/><path class="cls-12" d="M19.33,0h0Z"/><path class="cls-13" d="M3.66,0V0H1.23V0Z"/><path class="cls-14" d="M24,2.36h0V4.74s0,0,0,0q0-1.17,0-2.33Z"/><path class="cls-15" d="M0,1.42H0v1H0Z"/><path class="cls-16" d="M0,17.27H0v-.7a.61.61,0,0,1,0,.1C0,16.86,0,17.07,0,17.27Z"/><path class="cls-17" d="M1.22,0V0H.56V0Z"/><path class="cls-18" d="M24,15a.42.42,0,0,1,0-.08q0-.21,0-.42a.25.25,0,0,1,0-.06Z"/><path class="cls-19" d="M2.25.26a.61.61,0,0,1,.41.17.33.33,0,0,1,0,.51.69.69,0,0,1-.93,0,.33.33,0,0,1,0-.45A.67.67,0,0,1,2.25.26Z"/><path class="cls-6" d="M8.93,10.07a.49.49,0,0,1,.12,0l.94,0,.45,0a.09.09,0,0,1,.1.09c0,.22.1.44.15.66l.06.25c0,.05,0,.08-.06.09l-.29.08a.17.17,0,0,1-.12,0l-1.22-1-.15-.12Z"/><text class="cls-20" transform="translate(15.45 13.54) scale(0.71 1)">M<tspan class="cls-21" x="1.36" y="0">L</tspan><tspan class="cls-22" x="2.26" y="0">Q app</tspan></text></g></svg>